<?xml version="1.0" encoding="UTF-8"?>
<svg xmlns="http://www.w3.org/2000/svg" xmlns:xlink="http://www.w3.org/1999/xlink" width="45px" height="45px" viewBox="0 0 45 44" version="1.1">
<g id="surface1">
<path style=" stroke:none;fill-rule:nonzero;fill:rgb(13.72549%,12.156863%,12.54902%);fill-opacity:1;" d="M 8.597656 0.0390625 C 9.1875 0.0117188 9.777344 0.03125 10.367188 0.0273438 C 18.519531 0.0273438 26.671875 0.0273438 34.820312 0.0273438 C 35.335938 0.0273438 35.851562 0.0195312 36.367188 0.03125 C 36.378906 0.800781 36.371094 1.566406 36.375 2.335938 C 36.371094 4.832031 36.382812 7.332031 36.367188 9.832031 C 34.859375 9.84375 33.351562 9.832031 31.84375 9.835938 C 31.96875 10.238281 32.117188 10.628906 32.261719 11.023438 C 33.378906 14.109375 34.503906 17.195312 35.617188 20.285156 C 35.976562 21.230469 36.304688 22.1875 36.65625 23.136719 C 37.21875 24.699219 37.785156 26.257812 38.347656 27.820312 C 38.949219 29.460938 39.53125 31.113281 40.140625 32.753906 C 40.316406 33.21875 40.460938 33.695312 40.660156 34.152344 C 42.089844 34.152344 43.519531 34.152344 44.949219 34.152344 C 44.964844 34.746094 44.953125 35.339844 44.957031 35.9375 C 44.953125 38.613281 44.960938 41.292969 44.949219 43.972656 C 44.78125 43.972656 44.613281 43.976562 44.445312 43.976562 C 38.804688 43.976562 33.167969 43.976562 27.53125 43.976562 C 27.039062 43.972656 26.550781 43.984375 26.058594 43.964844 C 26.070312 42.894531 26.0625 41.824219 26.0625 40.75 C 26.0625 38.550781 26.070312 36.351562 26.058594 34.152344 C 27.367188 34.144531 28.675781 34.164062 29.980469 34.144531 C 29.894531 33.808594 29.78125 33.484375 29.664062 33.164062 C 29.460938 32.574219 29.261719 31.988281 29.070312 31.398438 C 29 31.1875 28.914062 30.976562 28.832031 30.769531 C 24.941406 30.769531 21.050781 30.769531 17.164062 30.769531 C 16.808594 30.761719 16.453125 30.761719 16.097656 30.789062 C 15.757812 31.914062 15.328125 33.015625 14.980469 34.140625 C 15.195312 34.148438 15.410156 34.152344 15.625 34.152344 C 16.714844 34.148438 17.804688 34.15625 18.894531 34.152344 C 18.898438 34.453125 18.902344 34.757812 18.898438 35.0625 C 18.894531 38.03125 18.902344 41 18.894531 43.972656 C 18.535156 43.976562 18.171875 43.980469 17.808594 43.976562 C 12.433594 43.976562 7.058594 43.976562 1.6875 43.976562 C 1.140625 43.976562 0.59375 43.980469 0.0507812 43.96875 C 0.0546875 41.015625 0.0507812 38.0625 0.0546875 35.109375 C 0.0703125 34.796875 0.0507812 34.484375 0 34.171875 L 0 34.136719 C 0.496094 34.164062 0.992188 34.148438 1.488281 34.152344 C 2.300781 34.15625 3.109375 34.148438 3.921875 34.15625 C 4.054688 34.152344 4.199219 34.164062 4.324219 34.105469 C 4.449219 33.882812 4.503906 33.628906 4.59375 33.394531 C 5.796875 30.109375 6.976562 26.820312 8.171875 23.535156 C 9.144531 20.8125 10.148438 18.097656 11.128906 15.378906 C 11.675781 13.871094 12.222656 12.363281 12.765625 10.859375 C 12.890625 10.523438 13.011719 10.1875 13.125 9.847656 C 12.472656 9.824219 11.816406 9.84375 11.160156 9.835938 C 10.308594 9.832031 9.453125 9.851562 8.597656 9.828125 C 8.609375 8.773438 8.601562 7.71875 8.605469 6.664062 C 8.601562 4.453125 8.609375 2.246094 8.597656 0.0390625 M 11.074219 2.445312 C 11.078125 4.105469 11.078125 5.765625 11.074219 7.425781 C 12.722656 7.414062 14.371094 7.425781 16.019531 7.417969 C 16.21875 7.417969 16.417969 7.421875 16.617188 7.429688 C 16.5625 7.605469 16.503906 7.78125 16.441406 7.957031 C 13.125 17.089844 9.816406 26.222656 6.507812 35.359375 C 6.371094 35.757812 6.207031 36.152344 6.085938 36.558594 C 4.882812 36.589844 3.683594 36.558594 2.484375 36.570312 C 2.476562 38.226562 2.480469 39.882812 2.484375 41.539062 C 2.910156 41.554688 3.339844 41.546875 3.769531 41.546875 C 7.6875 41.546875 11.605469 41.546875 15.527344 41.546875 C 15.824219 41.550781 16.125 41.550781 16.425781 41.539062 C 16.433594 41.308594 16.4375 41.078125 16.433594 40.847656 C 16.425781 39.421875 16.445312 37.996094 16.425781 36.574219 C 14.800781 36.558594 13.175781 36.582031 11.550781 36.5625 C 11.664062 36.199219 11.800781 35.839844 11.921875 35.480469 C 12.230469 34.605469 12.5 33.71875 12.8125 32.847656 C 13.113281 31.941406 13.449219 31.046875 13.730469 30.132812 C 13.933594 29.542969 14.125 28.945312 14.339844 28.359375 C 14.886719 28.339844 15.429688 28.359375 15.972656 28.351562 C 20.570312 28.351562 25.164062 28.351562 29.761719 28.351562 C 30.054688 28.347656 30.347656 28.347656 30.636719 28.363281 C 30.691406 28.550781 30.753906 28.738281 30.820312 28.925781 C 31.542969 31.054688 32.265625 33.183594 32.988281 35.308594 C 33.125 35.726562 33.289062 36.136719 33.402344 36.5625 C 31.777344 36.582031 30.15625 36.558594 28.535156 36.574219 C 28.539062 38.230469 28.539062 39.882812 28.535156 41.535156 C 28.828125 41.550781 29.121094 41.554688 29.414062 41.546875 C 33.316406 41.550781 37.21875 41.546875 41.121094 41.546875 C 41.570312 41.546875 42.019531 41.558594 42.472656 41.539062 C 42.476562 41.308594 42.484375 41.078125 42.480469 40.847656 C 42.472656 39.421875 42.492188 37.996094 42.472656 36.574219 C 41.28125 36.558594 40.085938 36.585938 38.894531 36.558594 C 38.621094 35.777344 38.328125 35 38.050781 34.21875 C 37.628906 33.101562 37.246094 31.972656 36.832031 30.851562 C 36.378906 29.648438 35.964844 28.4375 35.515625 27.234375 C 34.410156 24.167969 33.289062 21.105469 32.191406 18.039062 C 31.566406 16.375 30.992188 14.699219 30.363281 13.035156 C 30.257812 12.742188 30.164062 12.445312 30.054688 12.15625 C 29.691406 11.183594 29.351562 10.203125 28.984375 9.234375 C 28.785156 8.617188 28.546875 8.015625 28.328125 7.40625 C 29.914062 7.414062 31.5 7.410156 33.085938 7.410156 C 33.351562 7.414062 33.621094 7.410156 33.890625 7.402344 C 33.910156 5.957031 33.890625 4.511719 33.898438 3.0625 C 33.902344 2.855469 33.894531 2.648438 33.886719 2.445312 C 33.554688 2.445312 33.21875 2.445312 32.886719 2.445312 C 25.617188 2.445312 18.34375 2.449219 11.074219 2.445312 Z M 11.074219 2.445312 "/>
<path style=" stroke:none;fill-rule:nonzero;fill:rgb(13.72549%,12.156863%,12.54902%);fill-opacity:1;" d="M 21.613281 7.464844 C 21.738281 7.40625 21.886719 7.421875 22.023438 7.417969 C 22.46875 7.429688 22.914062 7.410156 23.355469 7.429688 C 23.488281 7.804688 23.621094 8.179688 23.75 8.554688 C 24.003906 9.355469 24.324219 10.132812 24.570312 10.933594 C 24.703125 11.308594 24.84375 11.683594 24.960938 12.0625 C 25.234375 12.777344 25.464844 13.507812 25.71875 14.230469 C 25.859375 14.589844 25.957031 14.960938 26.097656 15.320312 C 26.25 15.707031 26.359375 16.109375 26.515625 16.5 C 26.945312 17.765625 27.398438 19.023438 27.824219 20.289062 C 27.984375 20.675781 28.089844 21.082031 28.242188 21.472656 C 28.371094 21.820312 28.476562 22.175781 28.613281 22.523438 C 28.738281 22.847656 28.828125 23.183594 28.953125 23.507812 C 29.019531 23.6875 29.074219 23.875 29.121094 24.058594 C 24.691406 24.054688 20.261719 24.054688 15.828125 24.058594 C 15.988281 23.632812 16.113281 23.195312 16.277344 22.773438 C 16.507812 22.082031 16.746094 21.394531 16.996094 20.710938 C 17.234375 19.964844 17.507812 19.234375 17.769531 18.5 C 17.957031 17.914062 18.164062 17.335938 18.371094 16.757812 C 18.464844 16.488281 18.542969 16.210938 18.648438 15.945312 C 18.816406 15.53125 18.925781 15.101562 19.09375 14.6875 C 19.28125 14.125 19.480469 13.566406 19.671875 13.003906 C 19.832031 12.601562 19.945312 12.183594 20.097656 11.777344 C 20.207031 11.476562 20.300781 11.167969 20.417969 10.871094 C 20.59375 10.421875 20.726562 9.957031 20.894531 9.503906 C 21.046875 9.023438 21.242188 8.558594 21.390625 8.078125 C 21.460938 7.871094 21.507812 7.65625 21.613281 7.464844 M 22.03125 13.722656 C 21.863281 14.242188 21.671875 14.753906 21.492188 15.269531 C 21.34375 15.683594 21.214844 16.105469 21.0625 16.523438 C 20.90625 16.953125 20.75 17.382812 20.609375 17.816406 C 20.382812 18.511719 20.109375 19.1875 19.890625 19.882812 C 19.703125 20.472656 19.460938 21.042969 19.296875 21.640625 C 20.980469 21.640625 22.667969 21.640625 24.355469 21.640625 C 24.800781 21.636719 25.242188 21.648438 25.6875 21.632812 C 25.394531 20.839844 25.152344 20.03125 24.855469 19.242188 C 24.632812 18.644531 24.449219 18.03125 24.230469 17.429688 C 24.082031 17.035156 23.941406 16.636719 23.8125 16.234375 C 23.601562 15.589844 23.347656 14.960938 23.140625 14.316406 C 22.941406 13.6875 22.699219 13.074219 22.488281 12.449219 C 22.316406 12.863281 22.179688 13.292969 22.03125 13.722656 Z M 22.03125 13.722656 "/>
<path style=" stroke:none;fill-rule:nonzero;fill:rgb(100%,34.901961%,0%);fill-opacity:1;" d="M 11.074219 2.445312 C 18.34375 2.449219 25.617188 2.445312 32.886719 2.445312 C 33.21875 2.445312 33.554688 2.445312 33.886719 2.445312 C 33.894531 2.648438 33.902344 2.855469 33.898438 3.0625 C 33.890625 4.511719 33.910156 5.957031 33.890625 7.402344 C 33.621094 7.410156 33.351562 7.414062 33.085938 7.410156 C 31.5 7.410156 29.914062 7.414062 28.328125 7.40625 C 28.546875 8.015625 28.785156 8.617188 28.984375 9.234375 C 29.351562 10.203125 29.691406 11.183594 30.054688 12.15625 C 30.164062 12.445312 30.257812 12.742188 30.363281 13.035156 C 30.992188 14.699219 31.566406 16.375 32.191406 18.039062 C 33.289062 21.105469 34.410156 24.167969 35.515625 27.234375 C 35.964844 28.4375 36.378906 29.648438 36.832031 30.851562 C 37.246094 31.972656 37.628906 33.101562 38.050781 34.21875 C 38.328125 35 38.621094 35.777344 38.894531 36.558594 C 40.085938 36.585938 41.28125 36.558594 42.472656 36.574219 C 42.492188 37.996094 42.472656 39.421875 42.480469 40.847656 C 42.484375 41.078125 42.476562 41.308594 42.472656 41.539062 C 42.019531 41.558594 41.570312 41.546875 41.121094 41.546875 C 37.21875 41.546875 33.316406 41.550781 29.414062 41.546875 C 29.121094 41.554688 28.828125 41.550781 28.535156 41.535156 C 28.539062 39.882812 28.539062 38.230469 28.535156 36.574219 C 30.15625 36.558594 31.777344 36.582031 33.402344 36.5625 C 33.289062 36.136719 33.125 35.726562 32.988281 35.308594 C 32.265625 33.183594 31.542969 31.054688 30.820312 28.925781 C 30.753906 28.738281 30.691406 28.550781 30.636719 28.363281 C 30.347656 28.347656 30.054688 28.347656 29.761719 28.351562 C 25.164062 28.351562 20.570312 28.351562 15.972656 28.351562 C 15.429688 28.359375 14.886719 28.339844 14.339844 28.359375 C 14.125 28.945312 13.933594 29.542969 13.730469 30.132812 C 13.449219 31.046875 13.113281 31.941406 12.8125 32.847656 C 12.5 33.71875 12.230469 34.605469 11.921875 35.480469 C 11.800781 35.839844 11.664062 36.199219 11.550781 36.5625 C 13.175781 36.582031 14.800781 36.558594 16.425781 36.574219 C 16.445312 37.996094 16.425781 39.421875 16.433594 40.847656 C 16.4375 41.078125 16.433594 41.308594 16.425781 41.539062 C 16.125 41.550781 15.824219 41.550781 15.527344 41.546875 C 11.605469 41.546875 7.6875 41.546875 3.769531 41.546875 C 3.339844 41.546875 2.910156 41.554688 2.484375 41.539062 C 2.480469 39.882812 2.476562 38.226562 2.484375 36.570312 C 3.683594 36.558594 4.882812 36.589844 6.085938 36.558594 C 6.207031 36.152344 6.371094 35.757812 6.507812 35.359375 C 9.816406 26.222656 13.125 17.089844 16.441406 7.957031 C 16.503906 7.78125 16.5625 7.605469 16.617188 7.429688 C 16.417969 7.421875 16.21875 7.417969 16.019531 7.417969 C 14.371094 7.425781 12.722656 7.414062 11.074219 7.425781 C 11.078125 5.765625 11.078125 4.105469 11.074219 2.445312 M 21.613281 7.464844 C 21.507812 7.65625 21.460938 7.871094 21.390625 8.078125 C 21.242188 8.558594 21.046875 9.023438 20.894531 9.503906 C 20.726562 9.957031 20.59375 10.421875 20.417969 10.871094 C 20.300781 11.167969 20.207031 11.476562 20.097656 11.777344 C 19.945312 12.183594 19.832031 12.601562 19.671875 13.003906 C 19.480469 13.566406 19.28125 14.125 19.09375 14.6875 C 18.925781 15.101562 18.816406 15.53125 18.648438 15.945312 C 18.542969 16.210938 18.464844 16.488281 18.371094 16.757812 C 18.164062 17.335938 17.957031 17.914062 17.769531 18.5 C 17.507812 19.234375 17.234375 19.964844 16.996094 20.710938 C 16.746094 21.394531 16.507812 22.082031 16.277344 22.773438 C 16.113281 23.195312 15.988281 23.632812 15.828125 24.058594 C 20.261719 24.054688 24.691406 24.054688 29.121094 24.058594 C 29.074219 23.875 29.019531 23.6875 28.953125 23.507812 C 28.828125 23.183594 28.738281 22.847656 28.613281 22.523438 C 28.476562 22.175781 28.371094 21.820312 28.242188 21.472656 C 28.089844 21.082031 27.984375 20.675781 27.824219 20.289062 C 27.398438 19.023438 26.945312 17.765625 26.515625 16.5 C 26.359375 16.109375 26.25 15.707031 26.097656 15.320312 C 25.957031 14.960938 25.859375 14.589844 25.71875 14.230469 C 25.464844 13.507812 25.234375 12.777344 24.960938 12.0625 C 24.84375 11.683594 24.703125 11.308594 24.570312 10.933594 C 24.324219 10.132812 24.003906 9.355469 23.75 8.554688 C 23.621094 8.179688 23.488281 7.804688 23.355469 7.429688 C 22.914062 7.410156 22.46875 7.429688 22.023438 7.417969 C 21.886719 7.421875 21.738281 7.40625 21.613281 7.464844 Z M 21.613281 7.464844 "/>
<path style=" stroke:none;fill-rule:nonzero;fill:rgb(33.72549%,32.54902%,32.941176%);fill-opacity:1;" d="M 0 34.171875 C 0.0507812 34.484375 0.0703125 34.796875 0.0546875 35.109375 C 0.0507812 38.0625 0.0546875 41.015625 0.0507812 43.96875 L 0 43.96875 Z M 0 34.171875 "/>
</g>
</svg>
